# xmcd CD database file
#
# Track frame offsets:
#	183
#	18095
#	35183
#	44658
#	63950
#	79180
#	95428
#	115008
#	124123
#	149020
#
# Disc length: 2179 seconds
#
# Revision: 7
# Processed by: cddbd v1.5.1PL0 Copyright (c) Steve Scherf et al.
# Submitted via: CDex 1.51
#
DISCID=8908810a
DTITLE=Bill Withers - Bill Withers' Greatest Hits
DYEAR=1981
DGENRE=R&B
TTITLE0=Just The Two Of Us
TTITLE1=Use Me
TTITLE2=Ain't No Sunshine
TTITLE3=Lovely Day
TTITLE4=I Wanna Spend The Night
TTITLE5=Soul Shadows
TTITLE6=Lean On Me
TTITLE7=Grandma's Hands
TTITLE8=Hello Like Before
TTITLE9=Who Is He (And What Is He to You)?
EXTD=YEAR: 1981
EXTT0=
EXTT1=
EXTT2=
EXTT3=
EXTT4=
EXTT5=
EXTT6=
EXTT7=
EXTT8=
EXTT9=
PLAYORDER=
